<?xml version="1.0" encoding="us-ascii" standalone="no"?><svg xmlns="http://www.w3.org/2000/svg" xmlns:xlink="http://www.w3.org/1999/xlink" contentStyleType="text/css" height="1084.2px" preserveAspectRatio="none" style="width:315px;height:1084px;background:#FFFFFF;" version="1.1" viewBox="0 0 315 1084" width="315.6px" zoomAndPan="magnify"><defs/><g><text fill="#000000" font-family="sans-serif" font-size="8.4" font-weight="bold" lengthAdjust="spacing" textLength="76.2" x="115.5" y="15.0645">Use Case Diagram</text><!--cluster actors--><g id="cluster_actors"><rect fill="none" height="330" rx="1.5" ry="1.5" style="stroke:#FFFF00;stroke-width:0.6;" width="74.4" x="4.2" y="429.9727"/><text fill="#000000" font-family="sans-serif" font-size="8.4" font-weight="bold" lengthAdjust="spacing" textLength="59.4" x="11.7" y="440.2371">System Actors</text></g><!--cluster usecases--><g id="cluster_usecases"><rect fill="none" height="1053" rx="1.5" ry="1.5" style="stroke:#FFFF00;stroke-width:0.6;" width="216.6" x="95.4" y="27.9727"/><text fill="#000000" font-family="sans-serif" font-size="8.4" font-weight="bold" lengthAdjust="spacing" textLength="44.4" x="181.5" y="38.2371">Use Cases</text></g><!--entity Collaborator--><g id="elem_Collaborator"><ellipse cx="41.4" cy="457.5727" fill="#F1F1F1" rx="4.8" ry="4.8" style="stroke:#181818;stroke-width:0.3;"/><path d="M41.4,462.3727 L41.4,478.5727 M33.6,467.1727 L49.2,467.1727 M41.4,478.5727 L33.6,487.5727 M41.4,478.5727 L49.2,487.5727 " fill="none" style="stroke:#181818;stroke-width:0.3;"/><text fill="#000000" font-family="sans-serif" font-size="8.4" lengthAdjust="spacing" textLength="46.8" x="18" y="497.5371">Collaborator</text></g><!--entity GSM--><g id="elem_GSM"><ellipse cx="41.4" cy="526.2727" fill="#F1F1F1" rx="4.8" ry="4.8" style="stroke:#181818;stroke-width:0.3;"/><path d="M41.4,531.0727 L41.4,547.2727 M33.6,535.8727 L49.2,535.8727 M41.4,547.2727 L33.6,556.2727 M41.4,547.2727 L49.2,556.2727 " fill="none" style="stroke:#181818;stroke-width:0.3;"/><text fill="#000000" font-family="sans-serif" font-size="8.4" lengthAdjust="spacing" textLength="24" x="24.6" y="566.2371">Green</text><text fill="#000000" font-family="sans-serif" font-size="8.4" lengthAdjust="spacing" textLength="28.2" x="24.6" y="577.4098">Spaces</text><text fill="#000000" font-family="sans-serif" font-size="8.4" lengthAdjust="spacing" textLength="33.6" x="24.6" y="588.5824">Manager</text></g><!--entity HRM--><g id="elem_HRM"><ellipse cx="41.4" cy="616.8727" fill="#F1F1F1" rx="4.8" ry="4.8" style="stroke:#181818;stroke-width:0.3;"/><path d="M41.4,621.6727 L41.4,637.8727 M33.6,626.4727 L49.2,626.4727 M41.4,637.8727 L33.6,646.8727 M41.4,637.8727 L49.2,646.8727 " fill="none" style="stroke:#181818;stroke-width:0.3;"/><text fill="#000000" font-family="sans-serif" font-size="8.4" lengthAdjust="spacing" textLength="26.4" x="21" y="656.8371">Human</text><text fill="#000000" font-family="sans-serif" font-size="8.4" lengthAdjust="spacing" textLength="40.8" x="21" y="668.0098">Resources</text><text fill="#000000" font-family="sans-serif" font-size="8.4" lengthAdjust="spacing" textLength="33.6" x="21" y="679.1824">Manager</text></g><!--entity FM--><g id="elem_FM"><ellipse cx="41.4" cy="707.7727" fill="#F1F1F1" rx="4.8" ry="4.8" style="stroke:#181818;stroke-width:0.3;"/><path d="M41.4,712.5727 L41.4,728.7727 M33.6,717.3727 L49.2,717.3727 M41.4,728.7727 L33.6,737.7727 M41.4,728.7727 L49.2,737.7727 " fill="none" style="stroke:#181818;stroke-width:0.3;"/><text fill="#000000" font-family="sans-serif" font-size="8.4" lengthAdjust="spacing" textLength="55.2" x="13.8" y="747.7371">Fleet Manager</text></g><g id="elem_UC01"><ellipse cx="203.8003" cy="836.8527" fill="#F1F1F1" rx="54.7003" ry="12.3801" style="stroke:#181818;stroke-width:0.3;"/><text fill="#000000" font-family="sans-serif" font-size="8.4" lengthAdjust="spacing" textLength="82.2" x="160.9003" y="839.7349">UC01 - Register Skills</text></g><g id="elem_UC02"><ellipse cx="203.6881" cy="646.4503" fill="#F1F1F1" rx="55.1881" ry="12.4776" style="stroke:#181818;stroke-width:0.3;"/><text fill="#000000" font-family="sans-serif" font-size="8.4" lengthAdjust="spacing" textLength="83.4" x="160.1881" y="649.3325">UC02 - Register a Job</text></g><g id="elem_UC03"><ellipse cx="203.7261" cy="695.2379" fill="#F1F1F1" rx="66.6261" ry="14.7652" style="stroke:#181818;stroke-width:0.3;"/><text fill="#000000" font-family="sans-serif" font-size="8.4" lengthAdjust="spacing" textLength="109.8" x="148.8261" y="697.516">UC03 - Register Collaborator</text></g><g id="elem_UC04"><ellipse cx="203.5613" cy="743.0249" fill="#F1F1F1" rx="52.0613" ry="11.8523" style="stroke:#181818;stroke-width:0.3;"/><text fill="#000000" font-family="sans-serif" font-size="8.4" lengthAdjust="spacing" textLength="75.6" x="163.9613" y="745.9071">UC04 - Assign Skills</text></g><g id="elem_UC05"><ellipse cx="203.5851" cy="790.0097" fill="#F1F1F1" rx="60.4851" ry="13.537" style="stroke:#181818;stroke-width:0.3;"/><text fill="#000000" font-family="sans-serif" font-size="8.4" lengthAdjust="spacing" textLength="96" x="155.0632" y="792.4806">UC05 - Generate a Team</text></g><g id="elem_UC06"><ellipse cx="203.8464" cy="946.0619" fill="#F1F1F1" rx="60.7464" ry="13.5893" style="stroke:#181818;stroke-width:0.3;"/><text fill="#000000" font-family="sans-serif" font-size="8.4" lengthAdjust="spacing" textLength="96.6" x="155.0997" y="948.5061">UC06 - Register a vehicle</text></g><g id="elem_UC07"><ellipse cx="203.6513" cy="998.2229" fill="#F1F1F1" rx="81.5513" ry="17.7503" style="stroke:#181818;stroke-width:0.3;"/><text fill="#000000" font-family="sans-serif" font-size="8.4" lengthAdjust="spacing" textLength="142.2" x="132.5513" y="1000.501">UC07 - Update kilometers of a vehicle</text></g><g id="elem_UC08"><ellipse cx="203.569" cy="1054.0065" fill="#F1F1F1" rx="78.469" ry="17.1338" style="stroke:#181818;stroke-width:0.3;"/><text fill="#000000" font-family="sans-serif" font-size="8.4" lengthAdjust="spacing" textLength="135.6" x="135.769" y="1056.2846">UC08 - Register Vehicle's Check-up</text></g><g id="elem_UC09"><ellipse cx="203.7079" cy="890.8342" fill="#F1F1F1" rx="96.6079" ry="20.7616" style="stroke:#181818;stroke-width:0.3;"/><text fill="#000000" font-family="sans-serif" font-size="8.4" lengthAdjust="spacing" textLength="174" x="116.7079" y="893.1124">UC09 - List the vehicles needing the check-up</text></g><g id="elem_UC10"><ellipse cx="203.838" cy="247.7203" fill="#F1F1F1" rx="71.538" ry="15.7476" style="stroke:#181818;stroke-width:0.3;"/><text fill="#000000" font-family="sans-serif" font-size="8.4" lengthAdjust="spacing" textLength="120.6" x="143.538" y="249.9984">UC10 - Register a Green Space</text></g><g id="elem_UC11"><ellipse cx="203.7878" cy="301.5302" fill="#F1F1F1" rx="79.5878" ry="17.3576" style="stroke:#181818;stroke-width:0.3;"/><text fill="#000000" font-family="sans-serif" font-size="8.4" lengthAdjust="spacing" textLength="138" x="134.7878" y="303.8083">UC11 - Add a Task to the To-Do List</text></g><g id="elem_UC12"><ellipse cx="203.5737" cy="356.6274" fill="#F1F1F1" rx="74.5737" ry="16.3547" style="stroke:#181818;stroke-width:0.3;"/><text fill="#000000" font-family="sans-serif" font-size="8.4" lengthAdjust="spacing" textLength="127.2" x="139.9737" y="358.9055">UC12 - Add a Task in the Agenda</text></g><g id="elem_UC13"><ellipse cx="203.6814" cy="415.4489" fill="#F1F1F1" rx="97.1814" ry="20.8763" style="stroke:#181818;stroke-width:0.3;"/><text fill="#000000" font-family="sans-serif" font-size="8.4" lengthAdjust="spacing" textLength="175.2" x="116.0814" y="417.7271">UC13 - Assign a Team to a task in the Agenda</text></g><g id="elem_UC14"><ellipse cx="203.558" cy="475.6043" fill="#F1F1F1" rx="82.958" ry="18.0316" style="stroke:#181818;stroke-width:0.3;"/><text fill="#000000" font-family="sans-serif" font-size="8.4" lengthAdjust="spacing" textLength="145.2" x="130.958" y="477.8824">UC14 - Postpone a task in the Agenda</text></g><g id="elem_UC15"><ellipse cx="203.569" cy="532.0065" fill="#F1F1F1" rx="78.469" ry="17.1338" style="stroke:#181818;stroke-width:0.3;"/><text fill="#000000" font-family="sans-serif" font-size="8.4" lengthAdjust="spacing" textLength="135.6" x="135.769" y="534.2846">UC15 - Cancel a task in the Agenda</text></g><g id="elem_UC16"><ellipse cx="203.6167" cy="591.236" fill="#F1F1F1" rx="98.6167" ry="21.1633" style="stroke:#181818;stroke-width:0.3;"/><text fill="#000000" font-family="sans-serif" font-size="8.4" lengthAdjust="spacing" textLength="178.2" x="114.5167" y="593.5141">UC16 - Assign Vehicles to a task in the Agenda</text></g><g id="elem_UC17"><ellipse cx="203.7618" cy="190.705" fill="#F1F1F1" rx="95.4618" ry="20.5324" style="stroke:#181818;stroke-width:0.3;"/><text fill="#000000" font-family="sans-serif" font-size="8.4" lengthAdjust="spacing" textLength="171.6" x="117.9618" y="192.9831">UC17 - List of Green Spaces managed by me</text></g><g id="elem_UC18"><ellipse cx="203.7893" cy="128.7905" fill="#F1F1F1" rx="94.8893" ry="20.4179" style="stroke:#181818;stroke-width:0.3;"/><text fill="#000000" font-family="sans-serif" font-size="8.4" lengthAdjust="spacing" textLength="170.4" x="118.5893" y="131.0686">UC18 - Consult the Task Between Two Dates</text></g><g id="elem_UC19"><ellipse cx="203.7503" cy="68.8427" fill="#F1F1F1" rx="84.6503" ry="18.3701" style="stroke:#181818;stroke-width:0.3;"/><text fill="#000000" font-family="sans-serif" font-size="8.4" lengthAdjust="spacing" textLength="148.8" x="129.3503" y="71.1208">UC19 - Record the completion of a task</text></g><!--link HRM to UC01--><g id="link_HRM_UC01"><path d="M61.938,662.9347 C70.098,670.8427 78.714,681.0367 83.4,692.1727 C88.656,704.6707 81.714,803.7367 90.6,813.9727 C105.168,830.7547 124.8031,836.9116 146.3731,838.8916 " fill="none" id="HRM-to-UC01" style="stroke:#181818;stroke-width:0.6;"/><polygon fill="#181818" points="149.958,839.2207,144.8,836.3371,146.9706,838.9464,144.3612,841.117,149.958,839.2207" style="stroke:#181818;stroke-width:0.6;"/></g><!--link HRM to UC02--><g id="link_HRM_UC02"><path d="M61.914,646.5727 C83.424,646.5727 115.026,646.5727 144.894,646.5727 " fill="none" id="HRM-to-UC02" style="stroke:#181818;stroke-width:0.6;"/><polygon fill="#181818" points="148.494,646.5727,143.094,644.1727,145.494,646.5727,143.094,648.9727,148.494,646.5727" style="stroke:#181818;stroke-width:0.6;"/></g><!--link HRM to UC03--><g id="link_HRM_UC03"><path d="M61.932,657.1027 C70.572,661.3507 80.91,666.0307 90.6,669.3727 C110.304,676.1647 129.0439,680.9424 148.5319,685.1184 " fill="none" id="HRM-to-UC03" style="stroke:#181818;stroke-width:0.6;"/><polygon fill="#181818" points="152.052,685.8727,147.2747,682.3945,149.1186,685.2441,146.269,687.0879,152.052,685.8727" style="stroke:#181818;stroke-width:0.6;"/></g><!--link HRM to UC04--><g id="link_HRM_UC04"><path d="M61.812,664.2607 C69.552,672.1207 77.88,681.9067 83.4,692.1727 C89.526,703.5667 81.228,711.4567 90.6,720.3727 C106.77,735.7567 126.7449,741.6759 148.1289,743.8779 " fill="none" id="HRM-to-UC04" style="stroke:#181818;stroke-width:0.6;"/><polygon fill="#181818" points="151.71,744.2467,146.5842,741.3061,148.7258,743.9394,146.0926,746.0809,151.71,744.2467" style="stroke:#181818;stroke-width:0.6;"/></g><!--link HRM to UC05--><g id="link_HRM_UC05"><path d="M61.95,663.2347 C70.014,671.1307 78.54,681.2287 83.4,692.1727 C90.03,707.1127 79.74,753.1567 90.6,765.3727 C103.752,780.1627 120.0022,786.6322 139.3462,789.6922 " fill="none" id="HRM-to-UC05" style="stroke:#181818;stroke-width:0.6;"/><polygon fill="#181818" points="142.902,790.2547,137.9433,787.0404,139.9388,789.7859,137.1933,791.7815,142.902,790.2547" style="stroke:#181818;stroke-width:0.6;"/></g><!--link FM to UC06--><g id="link_FM_UC06"><path d="M44.766,750.1747 C50.676,796.9207 66.048,898.2247 90.6,921.9727 C104.526,935.4427 120.4987,941.5545 139.3807,944.6925 " fill="none" id="FM-to-UC06" style="stroke:#181818;stroke-width:0.6;"/><polygon fill="#181818" points="142.932,945.2827,137.9985,942.0298,139.9726,944.7908,137.2116,946.7649,142.932,945.2827" style="stroke:#181818;stroke-width:0.6;"/></g><!--link FM to UC07--><g id="link_FM_UC07"><path d="M43.566,750.1087 C47.67,804.9967 60.558,938.4307 90.6,969.9727 C100.596,980.4727 110.4405,986.2124 124.3545,990.5984 " fill="none" id="FM-to-UC07" style="stroke:#181818;stroke-width:0.6;"/><polygon fill="#181818" points="127.788,991.6807,123.3593,987.7682,124.9268,990.7787,121.9163,992.3462,127.788,991.6807" style="stroke:#181818;stroke-width:0.6;"/></g><!--link FM to UC08--><g id="link_FM_UC08"><path d="M42.576,750.2647 C44.604,814.0327 53.472,986.1487 90.6,1026.3727 C100.764,1037.3827 111.0906,1043.2884 125.5146,1047.5964 " fill="none" id="FM-to-UC08" style="stroke:#181818;stroke-width:0.6;"/><polygon fill="#181818" points="128.964,1048.6267,124.4767,1044.7817,126.0895,1047.7681,123.103,1049.3809,128.964,1048.6267" style="stroke:#181818;stroke-width:0.6;"/></g><!--link FM to UC09--><g id="link_FM_UC09"><path d="M44.148,750.1867 C48.12,780.0067 59.316,830.6767 90.6,859.5727 C99.978,868.2367 108.1886,873.257 120.3086,877.817 " fill="none" id="FM-to-UC09" style="stroke:#181818;stroke-width:0.6;"/><polygon fill="#181818" points="123.678,879.0847,119.469,874.9368,120.8702,878.0282,117.7787,879.4294,123.678,879.0847" style="stroke:#181818;stroke-width:0.6;"/></g><!--link GSM to UC10--><g id="link_GSM_UC10"><path d="M58.224,543.2647 C67.44,534.9967 78.156,523.3627 83.4,510.3727 C93.264,485.9407 73.872,293.7247 90.6,273.3727 C101.094,260.5987 113.0104,254.2332 129.0844,250.3152 " fill="none" id="GSM-to-UC10" style="stroke:#181818;stroke-width:0.6;"/><polygon fill="#181818" points="132.582,249.4627,126.7672,248.4097,129.6673,250.1731,127.904,253.0732,132.582,249.4627" style="stroke:#181818;stroke-width:0.6;"/></g><!--link GSM to UC11--><g id="link_GSM_UC11"><path d="M58.386,543.0547 C67.542,534.7927 78.132,523.2367 83.4,510.3727 C91.008,491.7847 77.934,345.3547 90.6,329.7727 C99.936,318.2887 109.7501,312.1577 123.8921,307.7057 " fill="none" id="GSM-to-UC11" style="stroke:#181818;stroke-width:0.6;"/><polygon fill="#181818" points="127.326,306.6247,121.4545,305.9569,124.4644,307.5255,122.8959,310.5354,127.326,306.6247" style="stroke:#181818;stroke-width:0.6;"/></g><!--link GSM to UC12--><g id="link_GSM_UC12"><path d="M58.308,543.0247 C67.434,534.7507 78.024,523.1947 83.4,510.3727 C88.848,497.3767 81.564,394.5847 90.6,383.7727 C100.71,371.6707 111.7289,365.4073 126.9569,361.2193 " fill="none" id="GSM-to-UC12" style="stroke:#181818;stroke-width:0.6;"/><polygon fill="#181818" points="130.428,360.2647,124.5849,359.3825,127.5354,361.0602,125.8577,364.0107,130.428,360.2647" style="stroke:#181818;stroke-width:0.6;"/></g><!--link GSM to UC13--><g id="link_GSM_UC13"><path d="M58.26,542.7187 C67.248,534.4207 77.712,522.9367 83.4,510.3727 C89.262,497.4127 81.366,457.5907 90.6,446.7727 C98.43,437.5987 105.3805,432.4072 116.5285,427.6912 " fill="none" id="GSM-to-UC13" style="stroke:#181818;stroke-width:0.6;"/><polygon fill="#181818" points="119.844,426.2887,113.9356,426.1822,117.0811,427.4575,115.8058,430.6029,119.844,426.2887" style="stroke:#181818;stroke-width:0.6;"/></g><!--link GSM to UC14--><g id="link_GSM_UC14"><path d="M58.302,537.6847 C70.836,523.8007 86.652,506.7007 90.6,504.3727 C104.406,496.2307 117.0103,491.3004 132.6223,487.0884 " fill="none" id="GSM-to-UC14" style="stroke:#181818;stroke-width:0.6;"/><polygon fill="#181818" points="136.098,486.1507,130.2593,485.2401,133.2016,486.9321,131.5096,489.8744,136.098,486.1507" style="stroke:#181818;stroke-width:0.6;"/></g><!--link GSM to UC15--><g id="link_GSM_UC15"><path d="M58.332,553.5367 C77.172,550.7347 105.7474,546.4776 134.9614,542.1216 " fill="none" id="GSM-to-UC15" style="stroke:#181818;stroke-width:0.6;"/><polygon fill="#181818" points="138.522,541.5907,132.8271,540.0133,135.5548,542.0331,133.535,544.7608,138.522,541.5907" style="stroke:#181818;stroke-width:0.6;"/></g><!--link GSM to UC16--><g id="link_GSM_UC16"><path d="M58.332,559.5607 C76.254,563.4967 102.684,569.3056 130.71,575.4676 " fill="none" id="GSM-to-UC16" style="stroke:#181818;stroke-width:0.6;"/><polygon fill="#181818" points="134.226,576.2407,129.4673,572.7371,131.296,575.5964,128.4366,577.4251,134.226,576.2407" style="stroke:#181818;stroke-width:0.6;"/></g><!--link GSM to UC17--><g id="link_GSM_UC17"><path d="M58.248,543.2767 C67.47,535.0087 78.192,523.3747 83.4,510.3727 C89.376,495.4507 80.682,233.8207 90.6,221.1727 C98.034,211.6987 104.7752,206.391 115.8332,201.651 " fill="none" id="GSM-to-UC17" style="stroke:#181818;stroke-width:0.6;"/><polygon fill="#181818" points="119.142,200.2327,113.2332,200.1543,116.3846,201.4146,115.1243,204.566,119.142,200.2327" style="stroke:#181818;stroke-width:0.6;"/></g><!--link Collaborator to UC18--><g id="link_Collaborator_UC18"><path d="M42.396,452.4427 C43.992,386.4547 51.876,202.7527 90.6,159.3727 C98.82,150.1627 106.1737,144.9521 117.6937,140.3021 " fill="none" id="Collaborator-to-UC18" style="stroke:#181818;stroke-width:0.6;"/><polygon fill="#181818" points="121.032,138.9547,115.1262,138.7504,118.2501,140.0776,116.9229,143.2014,121.032,138.9547" style="stroke:#181818;stroke-width:0.6;"/></g><!--link Collaborator to UC19--><g id="link_Collaborator_UC19"><path d="M41.7,452.4547 C41.244,377.9647 43.8,150.5107 90.6,97.5727 C99.816,87.1507 108.8293,81.4205 122.0533,76.9025 " fill="none" id="Collaborator-to-UC19" style="stroke:#181818;stroke-width:0.6;"/><polygon fill="#181818" points="125.46,75.7387,119.5741,75.2134,122.6211,76.7086,121.1259,79.7556,125.46,75.7387" style="stroke:#181818;stroke-width:0.6;"/></g><!--SRC=[XPLDZzem48Rl-HKZBZqXORwvL6A3O5KLgOBTFUt59BCXmh5HR8fGrV_UiOCXsDej1uJDlC_CEEyu-b3A8wzv1KUU7NY1MtCH23LcXij2O9BeMyHjyqy2z7bITOvrgeIguO92g7FoDqbCQKZ_gX5IJb-BaXUaJHA17mQCWheizWRoqi9A9PFaHeNEzg8DLZ3FZAfr1xW6xdv2az0jW18AlbCrfqLhkxEg4UMxt58VgD_bcalgfdQKrNRTZdm-LPmYDwZLgOw2dpSFmKk1QA0Ti5pRFbjb-sQRaayQCxku5drTKbJQOz253HObTLd3zb0AqKZiNowOSaEt-_s-qLRtsseEFzJEY_kXk1-91srn-mWzOn0o1X5ZI8ovrcKXW-A7eNOOQKUaNQ54oebK_0loogj7eNeKgSUFhV_6VPa9z82nYr_UzED8Fo7zwp6tkQbmLI5nDAYFc3K9M9E8DMtNyjQelsb8zvWTkgUZ1qq3q3G2pGZqap1WzkZBq20Hyr8MRZCBcBE0EGkPhFTuK6ucm8t4bS5wJaCJSOLSDzeGQzDvdjl7nFN13gqjvaLr5yeLx54iH4MUPVr7L2aTQbwWpBd7z4DCv5usk3klyOujYeFvb3a8cP6RcNNpBwNDKKdyaZKCMP6xcNLtocM6ualIA2H5JcVZUwTltXB_wNKSKYF_iuct6bc-vGaDbRlNSjXTeBfPP182eo5WTWXI9VL9DFPrJ_S9pTcoNyuA5ZHh_dvWZVVRjuudHrF1Pix16RrRcX5GrL6WVLCqusgFmMDdds9d2LtH_m00]--></g></svg>